<svg xmlns="http://www.w3.org/2000/svg" width="128" height="32" fill="none" viewBox="0 0 128 32">
  <path fill="#8D8DD5" d="M30.536 5.48H41.24v1.968h-7.68v5.568h5.928v1.944H33.56v6.072h7.68V23H30.872V7.016l-.336-1.536zm12.692 10.272h5.448v2.016h-5.448v-2.016zM56.39 5.216c.848 0 1.672.12 2.472.36s1.544.576 2.232 1.008l-1.344 1.8c-.464-.368-1-.656-1.608-.864a4.988 4.988 0 00-1.776-.336c-.752 0-1.408.192-1.968.576-.56.384-.84.992-.84 1.824 0 .48.128.896.384 1.248.272.352.624.664 1.056.936.432.256.904.504 1.416.744.56.272 1.136.56 1.728.864a7.92 7.92 0 011.632 1.056c.496.4.896.896 1.2 1.488.32.576.48 1.296.48 2.16 0 1.152-.288 2.12-.864 2.904-.56.768-1.304 1.344-2.232 1.728-.912.384-1.904.576-2.976.576-.912 0-1.808-.112-2.688-.336-.88-.224-1.72-.56-2.52-1.008l.984-2.256c.544.48 1.184.872 1.92 1.176.752.304 1.488.456 2.208.456a4.22 4.22 0 001.536-.288 3.14 3.14 0 001.248-.936c.336-.416.504-.944.504-1.584 0-.656-.168-1.192-.504-1.608a3.84 3.84 0 00-1.272-1.08c-.528-.304-1.096-.6-1.704-.888a35.878 35.878 0 01-1.584-.768 8.921 8.921 0 01-1.416-.984 4.325 4.325 0 01-1.008-1.32c-.256-.528-.384-1.16-.384-1.896 0-1.072.272-1.952.816-2.64a5.169 5.169 0 012.136-1.584 7.302 7.302 0 012.736-.528zm11.751 5.568c1.28 0 2.248.336 2.904 1.008.672.672 1.008 1.64 1.008 2.904v5.688c0 .384.064.648.192.792a.735.735 0 00.504.192c.144 0 .296-.016.456-.048.16-.048.312-.104.456-.168l.456 1.44c-.304.176-.664.32-1.08.432a4.076 4.076 0 01-1.2.192c-.496 0-.92-.12-1.272-.36-.336-.24-.552-.664-.648-1.272a4.737 4.737 0 01-1.632 1.248 4.539 4.539 0 01-1.968.432c-.944 0-1.736-.272-2.376-.816-.64-.56-.96-1.328-.96-2.304 0-.88.208-1.592.624-2.136.432-.56.992-.976 1.68-1.248a8.29 8.29 0 012.184-.576c.784-.112 1.52-.168 2.208-.168v-1.392c0-.448-.056-.824-.168-1.128a1.28 1.28 0 00-.6-.696c-.272-.176-.64-.264-1.104-.264-.576 0-1.144.136-1.704.408a7.455 7.455 0 00-1.584.984l-1.056-1.608a7.278 7.278 0 012.208-1.152 8.215 8.215 0 012.472-.384zm1.536 6.96c-.384 0-.824.024-1.32.072a5.79 5.79 0 00-1.392.264 2.388 2.388 0 00-1.104.648c-.288.304-.432.72-.432 1.248 0 .464.168.816.504 1.056a2.07 2.07 0 001.176.336c.528 0 .976-.144 1.344-.432.384-.304.68-.68.888-1.128.224-.448.336-.912.336-1.392v-.672zm8.428-6.672v7.44c0 .416.032.848.096 1.296.08.432.248.792.504 1.08.256.288.656.432 1.2.432.528 0 1.016-.112 1.464-.336a2.721 2.721 0 001.08-.96c.272-.416.408-.896.408-1.44V12.44c0-.016-.024-.128-.072-.336a42.305 42.305 0 01-.144-.648c-.032-.224-.056-.352-.072-.384h2.688v9.288c0 .352.056.608.168.768.112.16.288.24.528.24.224 0 .528-.072.912-.216l.456 1.44c-.336.176-.712.32-1.128.432-.4.128-.792.192-1.176.192-.448 0-.856-.12-1.224-.36-.352-.24-.584-.664-.696-1.272a6.422 6.422 0 01-1.704 1.248 4.65 4.65 0 01-2.064.48c-.896 0-1.608-.176-2.136-.528a3.142 3.142 0 01-1.152-1.488c-.224-.64-.336-1.376-.336-2.208V12.44l-.288-1.368h2.688zm3.72-5.688h3.168l-3.456 3.792h-2.136l2.424-3.792zm11.705 5.424c.496 0 1.008.08 1.536.24.528.144.976.376 1.344.696a11.248 11.248 0 01-.024-.696v-5.04l-.36-1.368h2.712v14.928c0 .336.016.712.048 1.128.048.416.12.824.216 1.224.112.384.248.728.408 1.032l-2.448.264a14.532 14.532 0 01-.264-.768 6.295 6.295 0 01-.144-.792 3.767 3.767 0 01-1.536 1.224 4.485 4.485 0 01-1.896.432c-.848 0-1.584-.176-2.208-.528a4.72 4.72 0 01-1.56-1.416 6.89 6.89 0 01-.936-1.992 8.17 8.17 0 01-.312-2.232c0-.848.112-1.648.336-2.4a6.24 6.24 0 011.008-2.04 4.73 4.73 0 011.68-1.392c.688-.336 1.488-.504 2.4-.504zm.144 1.8c-.592 0-1.08.136-1.464.408a3.079 3.079 0 00-.936 1.08 5.098 5.098 0 00-.48 1.416A8.07 8.07 0 0090.651 17c0 .496.048 1 .144 1.512.112.512.288.992.528 1.44.256.432.584.784.984 1.056.416.256.92.384 1.512.384.496 0 .968-.144 1.416-.432.464-.304.848-.64 1.152-1.008v-3.984c0-.592-.088-1.144-.264-1.656a2.526 2.526 0 00-.864-1.224c-.4-.32-.928-.48-1.584-.48zm13.335-1.848c1.024 0 1.872.216 2.544.648a3.854 3.854 0 011.512 1.728c.336.72.504 1.528.504 2.424a6 6 0 01-.048.744 6.294 6.294 0 01-.096.768h-7.464c0 1.424.32 2.52.96 3.288.64.768 1.496 1.152 2.568 1.152.464 0 .952-.072 1.464-.216a9.054 9.054 0 001.608-.696l.768 1.368a5.731 5.731 0 01-1.968 1.008 8.18 8.18 0 01-2.184.312c-.928 0-1.752-.16-2.472-.48-.72-.32-1.32-.76-1.8-1.32a6.253 6.253 0 01-1.104-1.968 7.768 7.768 0 01-.36-2.376c0-.816.12-1.6.36-2.352a6.63 6.63 0 011.056-2.064 5.26 5.26 0 011.752-1.44c.688-.352 1.488-.528 2.4-.528zm-.168 1.704c-.528 0-.992.152-1.392.456a3.249 3.249 0 00-.936 1.128 4.387 4.387 0 00-.432 1.368h5.016c.048-.576-.016-1.088-.192-1.536-.16-.448-.416-.792-.768-1.032-.352-.256-.784-.384-1.296-.384z"/>
  <path fill="#00BCF2" d="M10.391 25.733c-2.074-1.216-5.596-5.072-7.829-8.572l-.121-.19h1.543c1.046 0 1.596-.019 1.71-.059.3-.106.474-.339.813-1.092.62-1.38.706-1.56.719-1.51.006.026.14 1.588.296 3.47.274 3.307.288 3.429.4 3.67.195.422.463.603.896.605.32 0 .554-.126.76-.413.08-.112.572-1.185 1.094-2.384l.95-2.182 3.257-.014c3.245-.015 3.26-.015 3.431-.124.37-.236.558-.599.558-1.083 0-.507-.212-.894-.601-1.1-.161-.086-.41-.093-3.71-.106-2.419-.01-3.607.004-3.761.04-.4.098-.558.292-.947 1.162l-.342.766-.033-.19c-.018-.106-.15-1.618-.293-3.362-.143-1.743-.278-3.25-.3-3.349-.115-.505-.512-.837-.996-.833a.903.903 0 00-.781.441c-.055.09-.607 1.306-1.226 2.701l-1.125 2.537-1.813.013-1.813.013-.26-.622c-.65-1.544-.91-2.811-.861-4.172.039-1.081.218-1.852.642-2.765.348-.75.963-1.61 1.475-2.061a4.017 4.017 0 012.089-.939c.662-.092 1.447.033 2.317.368.382.148 1.325.705 1.77 1.047.77.591 1.786 1.648 2.464 2.562l.254.343.296-.458a10.138 10.138 0 012.373-2.52c1.632-1.188 3.475-1.58 4.925-1.046 1.178.434 2.13 1.476 2.823 3.092.69 1.61.752 3.642.17 5.594-.336 1.122-.755 2.09-1.405 3.25-.804 1.433-1.532 2.456-2.857 4.01-1.67 1.961-3.46 3.659-5.181 4.916-.505.368-1.208.814-1.283.813-.018 0-.238-.12-.487-.266z"/>
</svg>
